<?xml version="1.0" standalone="no"?>
<!DOCTYPE svg PUBLIC "-//W3C//DTD SVG 20010904//EN"
 "http://www.w3.org/TR/2001/REC-SVG-20010904/DTD/svg10.dtd">
<svg version="1.0" xmlns="http://www.w3.org/2000/svg"
 width="260.000000pt" height="260.000000pt" viewBox="0 0 260.000000 260.000000"
 preserveAspectRatio="xMidYMid meet">
<metadata>
Created by potrace 1.14, written by Peter Selinger 2001-2017
</metadata>
<g transform="translate(0.000000,260.000000) scale(0.100000,-0.100000)"
fill="#000000" stroke="none">
<path d="M762 2568 c0 -18 0 -38 -1 -45 -1 -8 -29 -13 -88 -15 l-88 -3 -1 -48
c-1 -26 -4 -50 -7 -53 -3 -3 -23 -5 -46 -6 l-41 0 0 -44 0 -44 -43 0 -43 0 0
-42 1 -43 -45 -5 -46 -5 0 -40 c0 -40 0 -40 -44 -45 -45 -5 -45 -5 -45 -45 l0
-40 -45 -5 -45 -5 0 -85 c0 -81 -1 -85 -22 -88 -20 -3 -23 -9 -23 -48 l0 -44
-45 0 -45 0 0 -470 0 -470 45 0 45 0 0 -45 c0 -40 2 -45 23 -45 22 0 23 -3 22
-87 l0 -88 45 -5 45 -5 -2 -42 -3 -43 48 0 48 0 -2 -45 -2 -45 47 0 47 0 -1
-45 -2 -45 44 0 c27 0 43 -5 44 -12 0 -7 2 -26 2 -43 2 -28 5 -30 47 -35 l45
-5 -3 -52 -3 -53 91 0 c65 0 90 -3 91 -12 0 -7 2 -26 2 -43 l2 -30 526 -3 526
-2 -2 32 c-4 56 0 58 94 58 l87 0 -1 53 0 52 45 5 45 5 0 40 0 40 55 5 55 5 0
43 0 42 46 0 46 0 -1 42 -1 43 45 5 c45 5 45 5 45 45 l0 40 45 5 45 5 0 87 c0
85 1 88 23 88 19 0 22 5 22 45 l0 45 45 0 45 0 0 470 0 470 -45 0 -45 0 0 45
c0 40 -2 45 -23 45 -22 0 -22 3 -22 88 l0 87 -45 5 c-42 5 -45 7 -46 35 -2 54
-2 55 -46 55 l-43 0 1 42 0 43 -45 5 -46 5 1 40 0 40 -55 5 -55 5 -1 40 c0 43
3 40 -70 44 -19 1 -21 7 -20 56 l1 55 -88 0 c-51 0 -89 4 -89 10 -1 6 -2 25
-3 43 l-1 32 -526 3 -526 2 -1 -32z"/>
</g>
</svg>
